<svg xmlns="http://www.w3.org/2000/svg" width="59" height="59" viewBox="0 0 59 59">
  <g id="Icono_wpp" data-name="Icono wpp" transform="translate(192 -177)">
    <circle id="Elipse_1" data-name="Elipse 1" cx="29.5" cy="29.5" r="29.5" transform="translate(-192 177)" fill="#4dc247"/>
    <path id="whatsapp_1_" data-name="whatsapp(1)" d="M32.425,37.542A18.9,18.9,0,0,0,2.682,60.348L0,70.137l10.02-2.63a18.841,18.841,0,0,0,9.032,2.3h.009A18.778,18.778,0,0,0,32.425,37.542ZM19.06,66.622a15.68,15.68,0,0,1-8-2.188l-.57-.341L4.546,65.651l1.583-5.8-.375-.6a15.738,15.738,0,1,1,29.19-8.351A15.883,15.883,0,0,1,19.06,66.622Zm8.615-11.765c-.468-.238-2.792-1.379-3.226-1.532s-.749-.238-1.064.238-1.217,1.532-1.5,1.856-.553.358-1.022.119c-2.775-1.388-4.6-2.477-6.427-5.618-.485-.834.485-.775,1.388-2.579a.875.875,0,0,0-.043-.826c-.119-.238-1.064-2.562-1.456-3.507-.383-.919-.775-.792-1.064-.809-.272-.017-.587-.017-.9-.017a1.749,1.749,0,0,0-1.26.587A5.306,5.306,0,0,0,9.449,46.71,9.251,9.251,0,0,0,11.373,51.6c.238.315,3.328,5.082,8.07,7.134,3,1.294,4.171,1.4,5.67,1.183.911-.136,2.792-1.141,3.184-2.247a3.949,3.949,0,0,0,.272-2.247C28.458,55.206,28.143,55.087,27.675,54.857Z" transform="translate(-181.433 155.567)" fill="#fff"/>
  </g>
</svg>
